name rise30.9205peak61.366fall85.3838.mot
datacolumns 19
datarows 32
range 19.63659700000000 19.68825800000000
endheader
time	ground_force1_vx	ground_force1_vy	ground_force1_vz	ground_force1_px	ground_force1_py	ground_force1_pz	ground_force2_vx	ground_force2_vy	ground_force2_vz	ground_force2_px	ground_force2_py	ground_force2_pz	ground_torque1_x	ground_torque1_y	ground_torque1_z	ground_torque2_x	ground_torque2_y	ground_torque2_z	
19.63659700000000	-9.29138800000000	41.99117300000000	-10.46066300000000	0.33155900000000	0.00000000000000	0.08866300000000	-51.33950800000000	770.06686200000001	-52.57525500000000	0.12186500000000	0.00000000000000	-0.09316400000000	0.00000000000000	-6.75315600000000	0.00000000000000	0.00000000000000	-20.01419500000000	0.00000000000000	
19.63826000000000	-10.12848700000000	49.22937900000000	-11.72404300000000	0.33620300000000	0.00000000000000	0.08986700000000	-51.88701900000000	767.12465399999996	-52.10405400000000	0.12106300000000	0.00000000000000	-0.09305400000000	0.00000000000000	-7.66085000000000	0.00000000000000	0.00000000000000	-19.92894400000000	0.00000000000000	
19.63992600000000	-10.77533800000000	56.56348600000000	-12.85808700000000	0.34040600000000	0.00000000000000	0.09095700000000	-52.45400900000000	764.10838300000000	-51.62661200000000	0.12025500000000	0.00000000000000	-0.09294400000000	0.00000000000000	-8.50346400000000	0.00000000000000	0.00000000000000	-19.84859800000000	0.00000000000000	
19.64159700000000	-11.20740500000000	63.89990500000000	-13.83509200000000	0.34424200000000	0.00000000000000	0.09195000000000	-53.04013700000000	761.01526200000001	-51.14299700000000	0.11944200000000	0.00000000000000	-0.09283100000000	0.00000000000000	-9.26163600000000	0.00000000000000	0.00000000000000	-19.77315000000000	0.00000000000000	
19.64326300000000	-11.41101200000000	71.16798500000000	-14.63699800000000	0.34776800000000	0.00000000000000	0.09285900000000	-53.64495800000000	757.84234800000002	-50.65325500000000	0.11862400000000	0.00000000000000	-0.09271800000000	0.00000000000000	-9.92191900000000	0.00000000000000	0.00000000000000	-19.70256800000000	0.00000000000000	
19.64492200000000	-11.38308300000000	78.32219499999999	-15.25546100000000	0.35103100000000	0.00000000000000	0.09369700000000	-54.26792100000000	754.58655799999997	-50.15740500000000	0.11780300000000	0.00000000000000	-0.09260400000000	0.00000000000000	-10.47698700000000	0.00000000000000	0.00000000000000	-19.63679300000000	0.00000000000000	
19.64659400000000	-11.13006500000000	85.34188300000000	-15.69113200000000	0.35406800000000	0.00000000000000	0.09447100000000	-54.90836800000000	751.24467300000003	-49.65544600000000	0.11698000000000	0.00000000000000	-0.09248800000000	0.00000000000000	-10.92529100000000	0.00000000000000	0.00000000000000	-19.57574000000000	0.00000000000000	
19.64826000000000	-10.66624800000000	92.22901100000000	-15.95231200000000	0.35691100000000	0.00000000000000	0.09519100000000	-55.56553300000000	747.81335600000000	-49.14735500000000	0.11615400000000	0.00000000000000	-0.09237200000000	0.00000000000000	-11.27031400000000	0.00000000000000	0.00000000000000	-19.51929800000000	0.00000000000000	
19.64993000000000	-10.01173300000000	99.00442600000000	-16.05322600000000	0.35958500000000	0.00000000000000	0.09586100000000	-56.23854200000000	744.28916200000003	-48.63308900000000	0.11532600000000	0.00000000000000	-0.09225400000000	0.00000000000000	-11.51953100000000	0.00000000000000	0.00000000000000	-19.46732900000000	0.00000000000000	
19.65159500000000	-9.19026300000000	105.70321000000000	-16.01209700000000	0.36211300000000	0.00000000000000	0.09648700000000	-56.92641300000000	740.66854799999999	-48.11258800000000	0.11449800000000	0.00000000000000	-0.09213500000000	0.00000000000000	-11.68322900000000	0.00000000000000	0.00000000000000	-19.41967000000000	0.00000000000000	
19.65325700000000	-8.22713800000000	112.36967500000000	-15.84924300000000	0.36451200000000	0.00000000000000	0.09707400000000	-57.62805500000000	736.94789400000002	-47.58577400000000	0.11367000000000	0.00000000000000	-0.09201500000000	0.00000000000000	-11.77329400000000	0.00000000000000	0.00000000000000	-19.37613200000000	0.00000000000000	
19.65493000000000	-7.14735500000000	119.05245499999999	-15.58532000000000	0.36679800000000	0.00000000000000	0.09762600000000	-58.34227100000000	733.12351100000001	-47.05255500000000	0.11284400000000	0.00000000000000	-0.09189400000000	0.00000000000000	-11.80208800000000	0.00000000000000	0.00000000000000	-19.33650100000000	0.00000000000000	
19.65660200000000	-5.97408300000000	125.80007700000000	-15.23984800000000	0.36898300000000	0.00000000000000	0.09814500000000	-59.06775700000000	729.19166199999995	-46.51282900000000	0.11202000000000	0.00000000000000	-0.09177100000000	0.00000000000000	-11.78146900000000	0.00000000000000	0.00000000000000	-19.30053800000000	0.00000000000000	
19.65825600000000	-4.72754100000000	132.65728100000001	-14.83007900000000	0.37107800000000	0.00000000000000	0.09863500000000	-59.80310500000000	725.14857300000006	-45.96648100000000	0.11119900000000	0.00000000000000	-0.09164800000000	0.00000000000000	-11.72202900000000	0.00000000000000	0.00000000000000	-19.26798200000000	0.00000000000000	
19.65994700000000	-3.42429600000000	139.66222800000000	-14.37023000000000	0.37309200000000	0.00000000000000	0.09909800000000	-60.54680500000000	720.99045400000000	-45.41339000000000	0.11038300000000	0.00000000000000	-0.09152300000000	0.00000000000000	-11.63255200000000	0.00000000000000	0.00000000000000	-19.23854500000000	0.00000000000000	
19.66159000000000	-2.07695200000000	146.84466900000001	-13.87108600000000	0.37503300000000	0.00000000000000	0.09953600000000	-61.29724700000000	716.71351700000002	-44.85342800000000	0.10957100000000	0.00000000000000	-0.09139700000000	0.00000000000000	-11.51971400000000	0.00000000000000	0.00000000000000	-19.21192100000000	0.00000000000000	
19.66326000000000	-0.69419400000000	154.22502900000001	-13.33992400000000	0.37690800000000	0.00000000000000	0.09995100000000	-62.05272600000000	712.31398999999999	-44.28646600000000	0.10876700000000	0.00000000000000	-0.09127000000000	0.00000000000000	-11.38798500000000	0.00000000000000	0.00000000000000	-19.18778000000000	0.00000000000000	
19.66492400000000	0.71889200000000	161.81431300000000	-12.78072400000000	0.37872200000000	0.00000000000000	0.10034500000000	-62.81144100000000	707.78814299999999	-43.71237100000000	0.10796900000000	0.00000000000000	-0.09114100000000	0.00000000000000	-11.23972600000000	0.00000000000000	0.00000000000000	-19.16577100000000	0.00000000000000	
19.66659700000000	2.16028400000000	169.61469099999999	-12.19457900000000	0.38048000000000	0.00000000000000	0.10071900000000	-63.57150600000000	703.13230099999998	-43.13101700000000	0.10718000000000	0.00000000000000	-0.09101100000000	0.00000000000000	-11.07541900000000	0.00000000000000	0.00000000000000	-19.14552600000000	0.00000000000000	
19.66827100000000	3.63036100000000	177.62059600000001	-11.58025500000000	0.38218500000000	0.00000000000000	0.10107400000000	-64.33094699999999	698.34287099999995	-42.54227700000000	0.10640100000000	0.00000000000000	-0.09088000000000	0.00000000000000	-10.89400300000000	0.00000000000000	0.00000000000000	-19.12665500000000	0.00000000000000	
19.66993100000000	5.13118800000000	185.82015000000001	-10.93481200000000	0.38384100000000	0.00000000000000	0.10141200000000	-65.08771200000000	693.41635699999995	-41.94603500000000	0.10563200000000	0.00000000000000	-0.09074700000000	0.00000000000000	-10.69326400000000	0.00000000000000	0.00000000000000	-19.10875300000000	0.00000000000000	
19.67160000000000	6.66580600000000	194.19676200000001	-10.25425300000000	0.38545000000000	0.00000000000000	0.10173400000000	-65.83967699999999	688.34939099999997	-41.34218000000000	0.10487600000000	0.00000000000000	-0.09061200000000	0.00000000000000	-10.47024400000000	0.00000000000000	0.00000000000000	-19.09140000000000	0.00000000000000	
19.67325900000000	8.23758000000000	202.73074000000000	-9.53412400000000	0.38701500000000	0.00000000000000	0.10204000000000	-66.58464700000000	683.13874299999998	-40.73061600000000	0.10413200000000	0.00000000000000	-0.09047600000000	0.00000000000000	-10.22163300000000	0.00000000000000	0.00000000000000	-19.07415900000000	0.00000000000000	
19.67493000000000	9.84964500000000	211.40079900000001	-8.77004800000000	0.38853700000000	0.00000000000000	0.10233100000000	-67.32036700000000	677.78135599999996	-40.11125800000000	0.10340100000000	0.00000000000000	-0.09033800000000	0.00000000000000	-9.94411700000000	0.00000000000000	0.00000000000000	-19.05658200000000	0.00000000000000	
19.67660400000000	11.50447100000000	220.18537699999999	-7.95815000000000	0.39001800000000	0.00000000000000	0.10260800000000	-68.04452600000000	672.27435700000001	-39.48403900000000	0.10268600000000	0.00000000000000	-0.09019800000000	0.00000000000000	-9.63467300000000	0.00000000000000	0.00000000000000	-19.03820900000000	0.00000000000000	
19.67825700000000	13.20355700000000	229.06370100000001	-7.09538100000000	0.39145900000000	0.00000000000000	0.10287100000000	-68.75476500000001	666.61508700000002	-38.84890700000000	0.10198600000000	0.00000000000000	-0.09005700000000	0.00000000000000	-9.29078400000000	0.00000000000000	0.00000000000000	-19.01856700000000	0.00000000000000	
19.67993100000000	14.94724800000000	238.01656600000001	-6.17971900000000	0.39285900000000	0.00000000000000	0.10312200000000	-69.44868300000000	660.80111499999998	-38.20583300000000	0.10130400000000	0.00000000000000	-0.08991300000000	0.00000000000000	-8.91059200000000	0.00000000000000	0.00000000000000	-18.99718000000000	0.00000000000000	
19.68160200000000	16.73467700000000	247.02684099999999	-5.21026700000000	0.39422100000000	0.00000000000000	0.10336100000000	-70.12384700000000	654.83026199999995	-37.55480800000000	0.10063900000000	0.00000000000000	-0.08976800000000	0.00000000000000	-8.49297200000000	0.00000000000000	0.00000000000000	-18.97355900000000	0.00000000000000	
19.68326300000000	18.56379400000000	256.07970999999998	-4.18725700000000	0.39554300000000	0.00000000000000	0.10358800000000	-70.77779600000000	648.70061499999997	-36.89584700000000	0.09999200000000	0.00000000000000	-0.08962000000000	0.00000000000000	-8.03755300000000	0.00000000000000	0.00000000000000	-18.94721600000000	0.00000000000000	
19.68492900000000	20.43148100000000	265.16269000000000	-3.11197700000000	0.39682500000000	0.00000000000000	0.10380400000000	-71.40805100000000	642.41054599999995	-36.22899000000000	0.09936500000000	0.00000000000000	-0.08947000000000	0.00000000000000	-7.54467900000000	0.00000000000000	0.00000000000000	-18.91765500000000	0.00000000000000	
19.68659500000000	22.33371700000000	274.26546900000000	-1.98664200000000	0.39806900000000	0.00000000000000	0.10400900000000	-72.01212099999999	635.95872099999997	-35.55430600000000	0.09875800000000	0.00000000000000	-0.08931800000000	0.00000000000000	-7.01533600000000	0.00000000000000	0.00000000000000	-18.88438000000000	0.00000000000000	
19.68825800000000	24.26577600000000	283.37961200000001	-0.81423200000000	0.39927200000000	0.00000000000000	0.10420400000000	-72.58751300000000	629.34411399999999	-34.87189200000000	0.09817200000000	0.00000000000000	-0.08916400000000	0.00000000000000	-6.45105300000000	0.00000000000000	0.00000000000000	-18.84689700000000	0.00000000000000	
